<?xml version="1.0" encoding="utf-8"?>
<svg width="11px" height="15px" viewBox="0 0 11 15" version="1.1" xmlns:xlink="http://www.w3.org/1999/xlink" xmlns="http://www.w3.org/2000/svg">
  <desc>Created with Lunacy</desc>
  <path d="M8.73308 1.49652C8.73308 1.49652 7.00545 1.49437 7.00545 1.49437C5.06543 1.49437 3.81077 2.6189 3.81077 4.35997C3.81077 4.35997 3.81077 5.68099 3.81077 5.68099C3.81077 5.68099 2.07329 5.68099 2.07329 5.68099C1.92439 5.68099 1.80178 5.78739 1.80178 5.9193C1.80178 5.9193 1.80178 7.8335 1.80178 7.8335C1.80178 7.96449 1.92439 8.07088 2.07329 8.07088C2.07329 8.07088 3.80967 8.07088 3.80967 8.07088C3.80967 8.07088 3.80967 12.9017 3.80967 12.9017C3.80967 13.0327 3.9323 13.1397 4.08119 13.1397C4.08119 13.1397 6.34746 13.1397 6.34746 13.1397C6.49855 13.1397 6.62008 13.0327 6.62008 12.9017C6.62008 12.9017 6.62008 8.07088 6.62008 8.07088C6.62008 8.07088 8.65096 8.07088 8.65096 8.07088C8.80096 8.07088 8.92247 7.96449 8.92247 7.8335C8.92247 7.8335 8.92357 5.9193 8.92357 5.9193C8.92357 5.85596 8.89511 5.79568 8.84475 5.7514C8.79329 5.70589 8.72432 5.68099 8.65206 5.68099C8.65206 5.68099 6.62008 5.68099 6.62008 5.68099C6.62008 5.68099 6.62008 4.56108 6.62008 4.56108C6.62008 4.02295 6.76678 3.74928 7.56929 3.74928C7.56929 3.74928 8.73198 3.74928 8.73198 3.74928C8.88416 3.74928 9.00459 3.64289 9.00459 3.51157C9.00459 3.51157 9.00459 1.73423 9.00459 1.73423C9.00459 1.60292 8.88416 1.49652 8.73308 1.49652Z" id="Shape-sp-414-0" fill="none" fill-rule="evenodd" stroke="none" />
</svg>