<?xml version="1.0" encoding="utf-8"?>
<svg width="27px" height="21px" viewBox="0 0 27 21" version="1.1" xmlns:xlink="http://www.w3.org/1999/xlink" xmlns="http://www.w3.org/2000/svg">
  <desc>Created with Lunacy</desc>
  <path d="M10.6427 8.88982L19.9541 8.88982L19.9541 12.0011C19.029 16.566 14.8041 20.002 9.97705 20.002C4.46682 20.002 -1.96695e-05 15.5245 -1.96695e-05 10.0008C-1.96695e-05 4.4775 4.46682 -0.000319481 9.97705 -2.0504e-05C12.6955 -2.0504e-05 15.1588 1.09006 16.9587 2.85759L14.7056 5.31266C13.5002 4.09067 11.8273 3.3336 9.97705 3.3336C6.30394 3.3336 3.32605 6.31849 3.32605 10.0008C3.32605 13.6831 6.30394 16.6684 9.97705 16.6684C12.9549 16.6684 15.4763 14.7062 16.3237 12.0011L10.6427 12.0011L10.6427 8.88982ZM24.0958 8.88428L26.0008 8.88428L26.0008 10.5208L24.0958 10.5208L24.0958 12.4304L22.4635 12.4304L22.4635 10.5208L20.5585 10.5208L20.5585 8.88428L22.4635 8.88428L22.4635 6.97501L24.0958 6.97501L24.0958 8.88428Z" id="Combined-shape-8852" fill="#FFFFFF" fill-rule="evenodd" stroke="none" />
</svg>