<?xml version="1.0" encoding="utf-8"?>
<svg width="11px" height="11px" viewBox="0 0 11 11" version="1.1" xmlns:xlink="http://www.w3.org/1999/xlink" xmlns="http://www.w3.org/2000/svg">
  <desc>Created with Lunacy</desc>
  <path d="M9.41758 -4.11272e-05C9.79637 -4.11272e-05 10.1215 0.132195 10.3941 0.396329C10.6668 0.660164 10.8014 0.976584 10.8014 1.34496L10.8014 9.14042C10.8014 9.5088 10.6668 9.82553 10.3941 10.0891C10.1215 10.3532 9.79637 10.4854 9.41758 10.4854L1.38599 10.4854C1.00608 10.4854 0.679825 10.3532 0.409401 10.0891C0.136793 9.82553 -5.68628e-05 9.5088 -5.68628e-05 9.14042L-5.68628e-05 1.34496C-5.68628e-05 0.976584 0.136793 0.659865 0.409401 0.396329C0.679825 0.132195 1.00608 -4.11272e-05 1.38599 -4.11272e-05L9.41758 -4.11272e-05ZM9.43837 3.09926C9.53253 3.00824 9.57851 2.89662 9.57851 2.76501L9.57851 1.63832C9.57851 1.51103 9.53253 1.40063 9.43837 1.30746C9.34422 1.21398 9.22926 1.16754 9.0935 1.16754L7.8695 1.16754C7.73483 1.16754 7.61878 1.21398 7.52462 1.30746C7.43156 1.40063 7.38449 1.51103 7.38449 1.63832L7.38449 2.76501C7.38449 2.89662 7.43156 3.00824 7.52462 3.09926C7.61878 3.18998 7.73483 3.23579 7.8695 3.23579L9.0935 3.23579C9.22926 3.23579 9.34422 3.18998 9.43837 3.09926ZM5.40834 3.18106C4.81277 3.18106 4.30258 3.38031 3.87888 3.77823C3.45519 4.17643 3.2417 4.65798 3.2417 5.22193C3.2417 5.78619 3.45519 6.26744 3.87888 6.66564C4.30258 7.06386 4.81277 7.26312 5.40834 7.26312C6.0094 7.26312 6.52068 7.06386 6.94547 6.66564C7.36917 6.26744 7.58156 5.78619 7.58156 5.22193C7.58156 4.65798 7.36917 4.17643 6.94547 3.77823C6.52068 3.38031 6.0094 3.18106 5.40834 3.18106ZM9.57851 8.86059C9.57851 8.97898 9.5369 9.07768 9.45151 9.15733C9.3672 9.23728 9.26649 9.27694 9.14933 9.27694L1.63232 9.27694C1.5108 9.27694 1.40788 9.23728 1.32577 9.15733C1.24475 9.07799 1.20315 8.97898 1.20315 8.86059L1.20315 4.4372L2.19506 4.4372C2.1009 4.72378 2.05383 5.02205 2.05383 5.3314C2.05383 6.20501 2.38227 6.9504 3.03916 7.56693C3.69495 8.18378 4.48542 8.4922 5.40834 8.4922C6.01815 8.4922 6.5809 8.35076 7.09656 8.06877C7.61222 7.78649 8.01948 7.40334 8.31947 6.91842C8.62054 6.43379 8.76943 5.9049 8.76943 5.3314C8.76943 5.02205 8.72346 4.72378 8.6293 4.4372L9.57851 4.4372L9.57851 8.86059Z" id="Combined-shape-417" fill="#FFFFFF" fill-rule="evenodd" stroke="none" />
</svg>