<?xml version="1.0" encoding="utf-8"?>
<svg width="14px" height="16px" viewBox="0 0 14 16" version="1.1" xmlns:xlink="http://www.w3.org/1999/xlink" xmlns="http://www.w3.org/2000/svg">
  <desc>Created with Lunacy</desc>
  <path d="M3.55391 9.19392C4.22832 8.09768 3.33715 7.85722 3.19701 7.06294C2.62661 3.81512 7.26974 1.59742 9.70133 3.86648C11.3841 5.43781 10.275 10.2705 7.56315 9.7671C4.96514 9.28802 8.83642 5.44149 6.76173 4.68688C5.07681 4.0728 4.18125 6.56355 4.98047 7.80125C4.51189 9.93008 3.50356 11.935 3.91192 14.6035C5.23666 13.7197 5.68443 12.0257 6.0501 10.2594C6.71576 10.6318 7.07266 11.0189 7.92114 11.0792C11.0523 11.3021 12.8019 8.20285 12.3727 5.34248C11.9928 2.80653 9.24588 1.51533 6.31505 1.81821C3.99841 2.05714 1.68945 3.78006 1.5931 6.24437C1.53507 7.74835 1.99928 8.8772 3.55391 9.19392Z" id="Shape-sp-416-0" fill="none" fill-rule="evenodd" stroke="none" />
</svg>