<?xml version="1.0" encoding="utf-8"?>
<svg width="16px" height="13px" viewBox="0 0 16 13" version="1.1" xmlns:xlink="http://www.w3.org/1999/xlink" xmlns="http://www.w3.org/2000/svg">
  <desc>Created with Lunacy</desc>
  <path d="M14.2262 2.06547C13.7029 2.33545 13.1248 2.53194 12.5073 2.63804C12.0147 2.17863 11.3118 1.89327 10.5334 1.89327C9.04005 1.89327 7.8281 2.94892 7.8281 4.24995C7.8281 4.43414 7.85326 4.61434 7.89816 4.78653C5.6516 4.68814 3.65794 3.74966 2.32334 2.32407C2.09014 2.67155 1.95877 3.07623 1.95877 3.50857C1.95877 4.32652 2.43611 5.04791 3.16088 5.47043C2.71747 5.4575 2.30035 5.35111 1.93578 5.1743C1.93578 5.1743 1.93578 5.20382 1.93578 5.20382C1.93578 6.34587 2.86856 7.2979 4.10461 7.51499C3.87798 7.56881 3.63931 7.59832 3.39189 7.59832C3.21781 7.59832 3.04922 7.58264 2.8828 7.55496C3.22766 8.49161 4.22614 9.17272 5.40963 9.19272C4.48342 9.82432 3.31744 10.2007 2.05074 10.2007C1.83178 10.2007 1.6161 10.1896 1.4048 10.1684C2.60142 10.8369 4.0236 11.2274 5.55086 11.2274C10.5268 11.2274 13.2474 7.63584 13.2474 4.52117C13.2474 4.52117 13.2387 4.21582 13.2387 4.21582C13.7686 3.88495 14.2284 3.46952 14.5897 2.99781C14.1047 3.18477 13.5846 3.31176 13.0372 3.36865C13.5956 3.07745 14.0237 2.61466 14.2262 2.06547Z" id="Shape-sp-415-0" fill="none" fill-rule="evenodd" stroke="none" />
</svg>