<?xml version="1.0" encoding="utf-8"?>
<svg width="166px" height="54px" viewBox="0 0 166 54" version="1.1" xmlns:xlink="http://www.w3.org/1999/xlink" xmlns="http://www.w3.org/2000/svg">
  <desc>Created with Lunacy</desc>
  <g id="Logo">
    <g id="Logo">
      <g id="SHOPPER">
        <g id="SH">
          <path d="M15.7588 14.0612Q16.0475 13.8512 16.31 13.4312L17.78 10.6837Q17.0975 10.0537 16.2313 9.555Q15.365 9.05625 14.3675 8.6975Q13.37 8.33875 12.2587 8.155Q11.1475 7.97125 9.975 7.97125Q7.875 7.97125 6.2475 8.61Q4.62 9.24875 3.5 10.3162Q2.38 11.3837 1.8025 12.7487Q1.225 14.1137 1.225 15.5487Q1.225 17.3337 1.715 18.55Q2.205 19.7663 3.00125 20.58Q3.7975 21.3937 4.8125 21.8925Q5.8275 22.3912 6.895 22.7325Q7.9625 23.0737 8.9775 23.3537Q9.9925 23.6338 10.7888 24.0012Q11.585 24.3687 12.075 24.9287Q12.565 25.4887 12.565 26.3812Q12.565 27.9212 11.6725 28.63Q10.78 29.3387 9.17 29.3387Q7.98 29.3387 7.105 29.0062Q6.23 28.6737 5.55625 28.2712Q4.8825 27.8687 4.34875 27.5362Q3.815 27.2037 3.29 27.2037Q2.8875 27.2038 2.5375 27.3962Q2.1875 27.5887 1.995 27.9037L0.245 30.6687Q0.9975 31.4212 2.0125 32.0337Q3.0275 32.6462 4.1825 33.0925Q5.3375 33.5387 6.57125 33.7837Q7.805 34.0287 8.995 34.0287Q11.165 34.0287 12.8713 33.3725Q14.5775 32.7162 15.7413 31.57Q16.905 30.4237 17.5175 28.8837Q18.13 27.3438 18.13 25.5762Q18.13 23.9837 17.64 22.855Q17.15 21.7262 16.3538 20.9387Q15.5575 20.1512 14.5338 19.6437Q13.51 19.1362 12.4425 18.76Q11.375 18.3838 10.3513 18.0775Q9.3275 17.7712 8.53125 17.4037Q7.735 17.0362 7.245 16.5287Q6.755 16.0212 6.755 15.2512Q6.755 14.0438 7.56875 13.335Q8.3825 12.6262 10.045 12.6262Q11.0075 12.6262 11.76 12.88Q12.5125 13.1337 13.0988 13.4487Q13.685 13.7637 14.1488 14.0175Q14.6125 14.2712 15.015 14.2712Q15.47 14.2712 15.7588 14.0612ZM37.38 33.7487L43.33 33.7487L43.33 8.25125L37.38 8.25125L37.38 18.9087L27.02 18.9087L27.02 8.25125L21.07 8.25125L21.07 33.7487L27.02 33.7487L27.02 22.9687L37.38 22.9687L37.38 33.7487Z" />
        </g>
        <g id="O" fill="#8BC34A">
          <path d="M72.695 20.9912Q72.695 23.7562 71.7413 26.1362Q70.7875 28.5162 69.055 30.275Q67.3225 32.0337 64.8812 33.0313Q62.44 34.0287 59.465 34.0287Q56.49 34.0287 54.04 33.0313Q51.59 32.0337 49.8488 30.275Q48.1075 28.5162 47.1538 26.1362Q46.2 23.7562 46.2 20.9912Q46.2 18.2262 47.1538 15.8462Q48.1075 13.4662 49.8488 11.7162Q51.59 9.96625 54.04 8.96875Q56.49 7.97125 59.465 7.97125Q62.44 7.97125 64.8812 8.9775Q67.3225 9.98375 69.055 11.7337Q70.7875 13.4837 71.7413 15.8637Q72.695 18.2437 72.695 20.9912ZM66.64 20.9912Q66.64 19.1012 66.15 17.5875Q65.66 16.0737 64.7412 15.0237Q63.8225 13.9738 62.4925 13.4137Q61.1625 12.8538 59.465 12.8537Q57.75 12.8537 56.4113 13.4137Q55.0725 13.9738 54.1538 15.0237Q53.235 16.0737 52.745 17.5875Q52.255 19.1012 52.255 20.9912Q52.255 22.8987 52.745 24.4125Q53.235 25.9262 54.1538 26.9762Q55.0725 28.0262 56.4113 28.5775Q57.75 29.1287 59.465 29.1287Q61.1625 29.1287 62.4925 28.5775Q63.8225 28.0262 64.7412 26.9762Q65.66 25.9262 66.15 24.4125Q66.64 22.8987 66.64 20.9912Z" />
        </g>
        <g id="PPER">
          <path d="M81.445 33.7487L81.445 25.2262L84.525 25.2262Q87.1675 25.2262 89.1012 24.5875Q91.035 23.9487 92.295 22.8112Q93.555 21.6737 94.1675 20.0812Q94.78 18.4888 94.78 16.5812Q94.78 14.8137 94.185 13.2912Q93.59 11.7687 92.3388 10.6487Q91.0875 9.52875 89.1537 8.89Q87.22 8.25125 84.525 8.25125L75.53 8.25125L75.53 33.7487L81.445 33.7487ZM103.775 33.7487L103.775 25.2262L106.855 25.2262Q109.498 25.2262 111.431 24.5875Q113.365 23.9487 114.625 22.8112Q115.885 21.6737 116.498 20.0812Q117.11 18.4888 117.11 16.5812Q117.11 14.8137 116.515 13.2912Q115.92 11.7687 114.669 10.6487Q113.418 9.52875 111.484 8.89Q109.55 8.25125 106.855 8.25125L97.86 8.25125L97.86 33.7487L103.775 33.7487ZM136.605 8.25125L136.605 12.8012L126.14 12.8012L126.14 18.7512L134.155 18.7512L134.155 23.1262L126.14 23.1262L126.14 29.1987L136.605 29.1987L136.605 33.7487L120.19 33.7487L120.19 8.25125L136.605 8.25125ZM145.88 33.7487L145.88 24.3162L147.385 24.3162Q148.068 24.3162 148.444 24.5262Q148.82 24.7362 149.1 25.2262L153.335 32.6287C153.767 33.3754 154.478 33.7487 155.47 33.7487L160.825 33.7487L155.4 24.8762Q155.015 24.2462 154.499 23.8087Q153.983 23.3713 153.388 23.0737Q154.63 22.6012 155.584 21.8662Q156.538 21.1312 157.194 20.195Q157.85 19.2588 158.183 18.1562Q158.515 17.0537 158.515 15.8112Q158.515 14.1837 157.955 12.8012Q157.395 11.4187 156.161 10.4037Q154.928 9.38875 152.976 8.82Q151.025 8.25125 148.26 8.25125L139.965 8.25125L139.965 33.7487L145.88 33.7487ZM84.525 20.7637L81.445 20.7637L81.445 12.6787L84.525 12.6787Q85.645 12.6787 86.4587 12.9587Q87.2725 13.2387 87.8063 13.755Q88.34 14.2712 88.6025 14.9887Q88.865 15.7063 88.865 16.5812Q88.865 18.5588 87.85 19.6612Q86.835 20.7637 84.525 20.7637ZM106.855 20.7637L103.775 20.7637L103.775 12.6787L106.855 12.6787Q107.975 12.6787 108.789 12.9587Q109.603 13.2387 110.136 13.755Q110.67 14.2712 110.933 14.9887Q111.195 15.7063 111.195 16.5812Q111.195 18.5588 110.18 19.6612Q109.165 20.7637 106.855 20.7637ZM148.26 20.2387L145.88 20.2387L145.88 12.6787L148.26 12.6787Q150.553 12.6787 151.646 13.6237Q152.74 14.5688 152.74 16.2487Q152.74 17.0888 152.495 17.815Q152.25 18.5412 151.708 19.0837Q151.165 19.6263 150.316 19.9325Q149.467 20.2388 148.26 20.2387Z" />
        </g>
      </g>
      <g id="Smart-Marketplace" transform="translate(32 39)">
        <path d="M61.3477 12.2012L60 12.2012L57.3516 9.31836L57.3281 9.31836L57.3281 12.2012L56.3672 12.2012L56.3672 3.31836L57.3281 3.31836L57.3281 8.94922L57.3516 8.94922L59.8711 6.20117L61.1309 6.20117L58.3477 9.0957L61.3477 12.2012ZM80.6895 12.2012L79.7285 12.2012L79.7285 3.31836L80.6895 3.31836L80.6895 12.2012ZM0.708984 10.7012L0.708984 11.8613Q0.873047 11.9727 1.14551 12.0635Q1.41797 12.1543 1.72266 12.2158Q2.02734 12.2773 2.32031 12.3096Q2.61328 12.3418 2.8125 12.3418Q3.41016 12.3418 3.94922 12.2217Q4.48828 12.1016 4.90137 11.832Q5.31445 11.5625 5.55762 11.1318Q5.80078 10.7012 5.80078 10.0801Q5.80078 9.61133 5.62207 9.24805Q5.44336 8.88477 5.13867 8.58594Q4.83398 8.28711 4.42969 8.04102Q4.02539 7.79492 3.57422 7.57227Q3.13477 7.35547 2.79785 7.17383Q2.46094 6.99219 2.22656 6.79883Q1.99219 6.60547 1.87207 6.37109Q1.75195 6.13672 1.75195 5.81445Q1.75195 5.46875 1.91016 5.22852Q2.06836 4.98828 2.32031 4.83594Q2.57227 4.68359 2.89453 4.61621Q3.2168 4.54883 3.53906 4.54883Q4.70508 4.54883 5.44922 5.06445L5.44922 3.95703Q4.88086 3.6582 3.63867 3.6582Q3.09375 3.6582 2.56934 3.79297Q2.04492 3.92774 1.63477 4.20313Q1.22461 4.47852 0.972656 4.90332Q0.720703 5.32813 0.720703 5.90234Q0.720703 6.37109 0.881836 6.71973Q1.04297 7.06836 1.32422 7.34375Q1.60547 7.61914 1.98633 7.84766Q2.36719 8.07617 2.80664 8.29883Q3.22266 8.50977 3.58301 8.7002Q3.94336 8.89063 4.20703 9.09863Q4.4707 9.30664 4.62012 9.55859Q4.76953 9.81055 4.76953 10.1504Q4.76953 10.7832 4.32129 11.1201Q3.87305 11.457 2.96484 11.457Q2.70117 11.457 2.39063 11.4043Q2.08008 11.3516 1.77246 11.2549Q1.46484 11.1582 1.18652 11.0176Q0.908203 10.877 0.708984 10.7012ZM43.0313 12.2012L44.0098 12.2012L44.0098 3.79883L42.7793 3.79883L40.1484 9.63477Q39.9961 9.97461 39.7441 10.666L39.709 10.666Q39.6211 10.332 39.3223 9.6582L36.7441 3.79883L35.4434 3.79883L35.4434 12.2012L36.3926 12.2012L36.3926 6.57617Q36.3926 5.43359 36.3457 4.92969L36.3691 4.92969Q36.498 5.50977 36.6211 5.79102L39.4863 12.2012L39.9668 12.2012L42.8379 5.74414Q42.9492 5.49805 43.0898 4.92969L43.1133 4.92969Q43.0313 5.89648 43.0313 6.56445L43.0313 12.2012ZM30.7441 12.1426Q30.4043 12.3301 29.8477 12.3301Q28.2715 12.3301 28.2715 10.5723L28.2715 7.02148L27.2402 7.02148L27.2402 6.20117L28.2715 6.20117L28.2715 4.73633L29.2324 4.42578L29.2324 6.20117L30.7441 6.20117L30.7441 7.02148L29.2324 7.02148L29.2324 10.4023Q29.2324 11.0059 29.4375 11.2637Q29.6426 11.5215 30.1172 11.5215Q30.4805 11.5215 30.7441 11.3223L30.7441 12.1426ZM71.3906 12.1426Q71.0508 12.3301 70.4941 12.3301Q68.918 12.3301 68.918 10.5723L68.918 7.02148L67.8867 7.02148L67.8867 6.20117L68.918 6.20117L68.918 4.73633L69.8789 4.42578L69.8789 6.20117L71.3906 6.20117L71.3906 7.02148L69.8789 7.02148L69.8789 10.4023Q69.8789 11.0059 70.084 11.2637Q70.2891 11.5215 70.7637 11.5215Q71.127 11.5215 71.3906 11.3223L71.3906 12.1426ZM14.9063 12.2012L15.8672 12.2012L15.8672 8.50391Q15.8672 6.06055 13.8867 6.06055Q12.5625 6.06055 11.8945 7.30273Q11.7246 6.74609 11.2676 6.40332Q10.8105 6.06055 10.1953 6.06055Q8.9707 6.06055 8.33203 7.15039L8.30859 7.15039L8.30859 6.20117L7.34766 6.20117L7.34766 12.2012L8.30859 12.2012L8.30859 8.7793Q8.30859 7.92969 8.71875 7.39941Q9.12891 6.86914 9.76172 6.86914Q11.127 6.86914 11.127 8.63867L11.127 12.2012L12.0879 12.2012L12.0879 8.7793Q12.0879 7.99414 12.5186 7.43164Q12.9492 6.86914 13.5645 6.86914Q14.291 6.86914 14.5986 7.31445Q14.9063 7.75977 14.9063 8.75586L14.9063 12.2012ZM21.9785 12.2012L21.0176 12.2012L21.0176 11.2637L20.9941 11.2637Q20.3672 12.3418 19.1484 12.3418Q18.252 12.3418 17.7451 11.8672Q17.2383 11.3926 17.2383 10.6074Q17.2383 8.92578 19.2188 8.65039L21.0176 8.39844Q21.0176 6.86914 19.7813 6.86914Q18.6973 6.86914 17.8242 7.60742L17.8242 6.62305Q18.709 6.06055 19.8633 6.06055Q21.9785 6.06055 21.9785 8.29883L21.9785 12.2012ZM50.3848 12.2012L49.4238 12.2012L49.4238 11.2637L49.4004 11.2637Q48.7734 12.3418 47.5547 12.3418Q46.6582 12.3418 46.1514 11.8672Q45.6445 11.3926 45.6445 10.6074Q45.6445 8.92578 47.625 8.65039L49.4238 8.39844Q49.4238 6.86914 48.1875 6.86914Q47.1035 6.86914 46.2305 7.60742L46.2305 6.62305Q47.1152 6.06055 48.2695 6.06055Q50.3848 6.06055 50.3848 8.29883L50.3848 12.2012ZM62.918 9.44141L67.1543 9.44141L67.1543 8.9375Q67.1543 7.58398 66.5098 6.82227Q65.8652 6.06055 64.6875 6.06055Q63.5098 6.06055 62.7158 6.94238Q61.9219 7.82422 61.9219 9.22461Q61.9219 10.707 62.6484 11.5244Q63.375 12.3418 64.6465 12.3418Q65.9473 12.3418 66.7383 11.7676L66.7383 10.8652Q65.8887 11.5332 64.875 11.5332Q63.9727 11.5332 63.457 10.9883Q62.9414 10.4434 62.918 9.44141ZM73.6348 11.334L73.6582 11.334Q74.291 12.3418 75.457 12.3418Q76.7285 12.3418 77.4609 11.4365Q78.1934 10.5313 78.1934 9.02539Q78.1934 7.67188 77.543 6.86621Q76.8926 6.06055 75.7324 6.06055Q74.3672 6.06055 73.6582 7.25586L73.6348 7.25586L73.6348 6.20117L72.6738 6.20117L72.6738 14.9609L73.6348 14.9609L73.6348 11.334ZM85.9688 12.2012L86.9297 12.2012L86.9297 8.29883Q86.9297 6.06055 84.8145 6.06055Q83.6602 6.06055 82.7754 6.62305L82.7754 7.60742Q83.6484 6.86914 84.7324 6.86914Q85.9688 6.86914 85.9688 8.39844L84.1699 8.65039Q82.1895 8.92578 82.1895 10.6074Q82.1895 11.3926 82.6963 11.8672Q83.2031 12.3418 84.0996 12.3418Q85.3184 12.3418 85.9453 11.2637L85.9688 11.2637L85.9688 12.2012ZM92.8301 11.9258Q92.1387 12.3418 91.1895 12.3418Q89.9063 12.3418 89.1182 11.5068Q88.3301 10.6719 88.3301 9.3418Q88.3301 7.85938 89.1797 6.95996Q90.0293 6.06055 91.4473 6.06055Q92.2383 6.06055 92.8418 6.35352L92.8418 7.33789Q92.1738 6.86914 91.4121 6.86914Q90.4922 6.86914 89.9033 7.52832Q89.3145 8.1875 89.3145 9.25977Q89.3145 10.3145 89.8682 10.9238Q90.4219 11.5332 91.3535 11.5332Q92.1387 11.5332 92.8301 11.0117L92.8301 11.9258ZM94.8691 9.44141L99.1055 9.44141L99.1055 8.9375Q99.1055 7.58398 98.4609 6.82227Q97.8164 6.06055 96.6387 6.06055Q95.4609 6.06055 94.667 6.94238Q93.873 7.82422 93.873 9.22461Q93.873 10.707 94.5996 11.5244Q95.3262 12.3418 96.5977 12.3418Q97.8984 12.3418 98.6895 11.7676L98.6895 10.8652Q97.8398 11.5332 96.8262 11.5332Q95.9238 11.5332 95.4082 10.9883Q94.8926 10.4434 94.8691 9.44141ZM26.1914 6.98047Q26.666 6.98047 26.918 7.17383L26.918 6.17773Q26.7188 6.0957 26.3438 6.0957Q25.8223 6.0957 25.4004 6.4502Q24.9785 6.80469 24.7734 7.4375L24.75 7.4375L24.75 6.20117L23.7891 6.20117L23.7891 12.2012L24.75 12.2012L24.75 9.14258Q24.75 8.14063 25.1631 7.56055Q25.5762 6.98047 26.1914 6.98047ZM54.5977 6.98047Q55.0723 6.98047 55.3242 7.17383L55.3242 6.17773Q55.125 6.0957 54.75 6.0957Q54.2285 6.0957 53.8066 6.4502Q53.3848 6.80469 53.1797 7.4375L53.1563 7.4375L53.1563 6.20117L52.1953 6.20117L52.1953 12.2012L53.1563 12.2012L53.1563 9.14258Q53.1563 8.14063 53.5693 7.56055Q53.9824 6.98047 54.5977 6.98047ZM65.7686 7.33203Q66.1641 7.79492 66.1699 8.62695L62.9297 8.62695Q63.041 7.8418 63.5156 7.35547Q63.9902 6.86914 64.6699 6.86914Q65.373 6.86914 65.7686 7.33203ZM73.6348 9.75195L73.6348 8.91406Q73.6348 8.03516 74.1445 7.45215Q74.6543 6.86914 75.4922 6.86914Q76.2832 6.86914 76.7461 7.4375Q77.209 8.00586 77.209 9.00781Q77.209 10.1973 76.7139 10.8652Q76.2188 11.5332 75.3457 11.5332Q74.6016 11.5332 74.1182 11.0146Q73.6348 10.4961 73.6348 9.75195ZM97.7197 7.33203Q98.1152 7.79492 98.1211 8.62695L94.8809 8.62695Q94.9922 7.8418 95.4668 7.35547Q95.9414 6.86914 96.6211 6.86914Q97.3242 6.86914 97.7197 7.33203ZM21.0176 9.16602L19.5703 9.36523Q18.9023 9.45898 18.5625 9.69629Q18.2227 9.93359 18.2227 10.5371Q18.2227 10.9766 18.5361 11.2549Q18.8496 11.5332 19.3711 11.5332Q20.0859 11.5332 20.5518 11.0322Q21.0176 10.5313 21.0176 9.76367L21.0176 9.16602ZM49.4238 9.16602L47.9766 9.36523Q47.3086 9.45898 46.9688 9.69629Q46.6289 9.93359 46.6289 10.5371Q46.6289 10.9766 46.9424 11.2549Q47.2559 11.5332 47.7773 11.5332Q48.4922 11.5332 48.958 11.0322Q49.4238 10.5313 49.4238 9.76367L49.4238 9.16602ZM84.5215 9.36523L85.9688 9.16602L85.9688 9.76367Q85.9688 10.5313 85.5029 11.0322Q85.0371 11.5332 84.3223 11.5332Q83.8008 11.5332 83.4873 11.2549Q83.1738 10.9766 83.1738 10.5371Q83.1738 9.93359 83.5137 9.69629Q83.8535 9.45898 84.5215 9.36523Z" />
      </g>
    </g>
  </g>
</svg>