<?xml version="1.0" encoding="utf-8"?>
<svg width="21px" height="20px" viewBox="0 0 21 20" version="1.1" xmlns:xlink="http://www.w3.org/1999/xlink" xmlns="http://www.w3.org/2000/svg">
  <path d="M14.9222 12.815L18.7365 9.06195C20.8407 6.98878 20.8407 3.62782 18.7365 1.55465C16.629 -0.51823 13.2153 -0.51823 11.1089 1.55465L8.22188 4.39901C9.37472 4.23204 10.5604 4.34583 11.6596 4.76741L13.0161 3.43131C14.0671 2.39657 15.7783 2.39657 16.8272 3.43131C17.8793 4.46635 17.8793 6.14962 16.8272 7.18498L13.0161 10.9383C11.9661 11.9725 10.2561 11.9737 9.20394 10.9383C8.8744 10.6142 8.66089 10.2243 8.53828 9.81195C8.43865 9.86854 8.33463 9.91649 8.25035 9.99984L6.47783 11.7443C6.70664 12.1228 6.96613 12.4897 7.29786 12.815C9.40208 14.8882 12.8168 14.8882 14.9222 12.815ZM7.29786 16.5693L8.65434 15.2329C9.75354 15.6545 10.9392 15.7682 12.0932 15.601L9.20394 18.4456C7.09751 20.5179 3.68387 20.5179 1.57852 18.4456C-0.525709 16.3722 -0.525709 13.0118 1.57852 10.9383L5.39068 7.18498C7.496 5.11241 10.9107 5.11241 13.0161 7.18498C13.3478 7.51092 13.6084 7.87654 13.835 8.25631L12.0636 9.99984C11.9793 10.0829 11.8764 10.1296 11.7768 10.1868C11.6519 9.77506 11.4385 9.38513 11.1089 9.06195C10.059 8.02599 8.34887 8.02599 7.29786 9.06195L3.4846 12.815C2.43356 13.85 2.43356 15.5336 3.4846 16.5693C4.53563 17.6034 6.24683 17.6034 7.29786 16.5693Z" id="Combined-shape-3510" fill="#C8C8C8" fill-rule="evenodd" stroke="none" />
</svg>