<?xml version="1.0" encoding="utf-8"?>
<svg width="28px" height="48px" viewBox="0 0 28 48" version="1.1" xmlns:xlink="http://www.w3.org/1999/xlink" xmlns="http://www.w3.org/2000/svg">
  <path d="M13.6318 40.9027C15.5192 40.9027 17.1264 40.238 18.4566 38.9086C19.7857 37.5793 20.4503 35.972 20.4503 34.0855L20.4503 -2.563e-05L27.2666 -2.563e-05L27.2666 34.0855C27.2666 37.8579 25.9386 41.0731 23.2793 43.7318C20.6211 46.3904 17.4045 47.7197 13.6318 47.7197C9.86011 47.7197 6.64572 46.3904 3.9875 43.7318C1.32819 41.0731 -0.000901461 37.8579 -0.000901461 34.0855L6.81541 34.0855C6.81541 35.972 7.48107 37.5793 8.81017 38.9086C10.1393 40.238 11.7476 40.9027 13.6318 40.9027ZM10.2247 6.81725L13.6318 -2.563e-05L18.7457 -2.563e-05L18.7457 6.81725L10.2247 6.81725Z" id="Combined-shape-3594" fill="#000000" fill-rule="evenodd" stroke="none" />
</svg>